<svg width="25" height="25" viewBox="0 0 25 25" fill="none" xmlns="http://www.w3.org/2000/svg">
<g clip-path="url(#clip0_103_310)">
<path d="M17.8761 21.0923V19.0961C17.8761 18.0373 17.4555 17.0218 16.7068 16.2731C15.9581 15.5244 14.9426 15.1038 13.8838 15.1038H5.899C4.84015 15.1038 3.82467 15.5244 3.07596 16.2731C2.32724 17.0218 1.90662 18.0373 1.90662 19.0961V21.0923" stroke="white" stroke-width="1.49714" stroke-linecap="round" stroke-linejoin="round"/>
<path d="M9.89143 11.1115C12.0964 11.1115 13.8838 9.32402 13.8838 7.11909C13.8838 4.91416 12.0964 3.12671 9.89143 3.12671C7.6865 3.12671 5.89905 4.91416 5.89905 7.11909C5.89905 9.32402 7.6865 11.1115 9.89143 11.1115Z" stroke="white" stroke-width="1.49714" stroke-linecap="round" stroke-linejoin="round"/>
<path d="M23.8648 21.0922V19.096C23.8641 18.2114 23.5697 17.3521 23.0277 16.653C22.4858 15.9539 21.727 15.4545 20.8705 15.2334" stroke="white" stroke-width="1.49714" stroke-linecap="round" stroke-linejoin="round"/>
<path d="M16.8781 3.25635C17.7368 3.47623 18.498 3.97568 19.0416 4.67595C19.5851 5.37622 19.8802 6.23749 19.8802 7.12397C19.8802 8.01045 19.5851 8.87171 19.0416 9.57198C18.498 10.2723 17.7368 10.7717 16.8781 10.9916" stroke="white" stroke-width="1.49714" stroke-linecap="round" stroke-linejoin="round"/>
</g>
<defs>
<clipPath id="clip0_103_310">
<rect width="23.9543" height="23.9543" fill="white" transform="translate(0.908569 0.132324)"/>
</clipPath>
</defs>
</svg>
